<?xml version="1.0" encoding="iso-8859-1"?>
<!-- Uploaded to: SVG Repo, www.svgrepo.com, Generator: SVG Repo Mixer Tools -->
<svg height="800px" width="800px" version="1.1" id="Layer_1" xmlns="http://www.w3.org/2000/svg" xmlns:xlink="http://www.w3.org/1999/xlink" 
	 viewBox="0 0 508.4 508.4" xml:space="preserve">
<g>
	<path style="fill:#ACD9EA;" d="M491.6,37.4L256,228.2c-0.4,0.4-0.8,0.4-1.2,0.4s-0.8,0-1.2-0.4L17.6,37.4
		C10.8,44.2,6.4,53.8,6.4,64.2v269.6c0,10.4,4.4,19.6,11.2,26.8L195.2,217c0.8-0.8,2-0.4,2.8,0.4s0.4,2-0.4,2.8L20.4,364.6
		c6.4,5.2,14.8,9.6,23.6,9.6h420.8c8.8,0,17.2-4.4,23.6-9.6l-177.2-144c-0.8-0.8-0.8-2.4-0.4-3.2c0.8-0.8,2-1.2,2.8-0.4l177.6,143.6
		c6.8-6.8,10.8-16.4,10.8-26.8v-270C502.4,53.4,498.4,44.2,491.6,37.4z"/>
	<path style="fill:#ACD9EA;" d="M254.4,224.2L488.4,35v-0.4c-6.4-5.2-14.8-8.8-23.6-8.8H44c-8.8,0-17.2,3.2-23.6,8.8l0,0
		L254.4,224.2z"/>
</g>
<path style="fill:#CDEEF9;" d="M254.4,224.2L488.4,35v-0.4c-6.4-5.2-14.8-8.8-23.6-8.8h-34L254.4,171L76.8,25.8H44
	c-8.8,0-17.2,3.2-23.6,8.8l0,0L254.4,224.2z"/>
<circle style="fill:#54B265;" cx="254.8" cy="373.4" r="108.8"/>
<g>
	<circle style="fill:#F4EFEF;" cx="254.4" cy="385.4" r="6"/>
	<path style="fill:#F4EFEF;" d="M298.8,373.4c-1.6-8-8-14-16.4-14l0.8-4c0-0.4-0.8-0.4-0.8-0.8v-6c0-16.4-11.6-29.2-28-29.2
		s-28,13.2-28,29.2v6c0,0.4-0.8,0.4-0.8,0.8c0.4,0,1.2,4,1.2,4c-8.4,0-14.8,6-16.4,14c0,0.8,0,2,0,2.8v33.6c0,9.2,6.8,19.6,16,19.6
		h56.4c9.2,0,15.6-10.4,15.6-19.6v-33.6C298.4,375.4,298.8,374.6,298.8,373.4z M254.4,395v16c0,1.2,1.2,2,0,2s0-0.8,0-2V395
		c-4-0.8-8.8-4.8-8.8-9.6c0-5.6,4-10,9.2-10c5.6,0,8.4,4.4,8.4,10C263.6,390.2,258.4,394.2,254.4,395z"/>
</g>
<path d="M464.8,379.8h-94.4c-2.4,0-4-1.6-4-4s1.6-4,4-4h94.4c18.8,0,35.6-17.6,35.6-38v-270c0-20-16-36-35.6-36H44
	c-19.6,0-36,16.4-36,36v270c0,20.4,16.8,38,36,38h94c2.4,0,4,1.6,4,4s-1.6,4-4,4H44c-23.2,0-44-21.6-44-46v-270c0-24,20-44,44-44
	h420.8c24,0,43.6,20,43.6,44v270C508.4,358.6,488.4,379.8,464.8,379.8z"/>
<path d="M21.6,363.8c-1.2,0-2.4-0.4-3.2-1.6c-1.2-1.6-1.2-4.4,0.4-5.6L193.6,215c1.6-1.2,4.4-1.2,5.6,0.4c1.2,1.6,1.2,4.4-0.4,5.6
	L24,362.6C23.6,363.4,22.4,363.8,21.6,363.8z"/>
<path d="M491.6,367c-0.8,0-1.6-0.4-2.4-0.8L310.4,221.4c-1.6-1.2-2-4-0.4-5.6c1.2-1.6,4-2,5.6-0.4l178.8,144.8c1.6,1.2,2,4,0.4,5.6
	C494,366.6,492.8,367,491.6,367z"/>
<path d="M254.4,230.6c-0.8,0-1.6-0.4-2.4-0.8L14.8,37.8c-1.6-1.2-2-4-0.4-5.6c1.2-1.6,4-2,5.6-0.4l234.4,190l234.4-190
	c1.6-1.2,4.4-1.2,5.6,0.4s1.2,4.4-0.4,5.6l-237.2,192C256.4,230.2,255.6,230.6,254.4,230.6z"/>
<path d="M254.4,175.8c-0.8,0-1.6-0.4-2.4-0.8L70,27.8c-1.6-1.2-2-4-0.4-5.6c1.2-1.6,4-2,5.6-0.4L254.8,167l22-17.6
	c1.6-1.2,4.4-1.2,5.6,0.4c1.2,1.6,1.2,4.4-0.4,5.6L257.6,175C256.4,175.4,255.6,175.8,254.4,175.8z"/>
<path d="M310,131c-1.2,0-2.4-0.4-3.2-1.6c-1.2-1.6-1.2-4.4,0.4-5.6L434,21.4c1.6-1.2,4.4-1.2,5.6,0.4c1.2,1.6,1.2,4.4-0.4,5.6
	L312.4,129.8C311.6,130.6,310.8,131,310,131z"/>
<path d="M254.4,488.6c-63.2,0-114.8-51.6-114.8-114.8S191.2,259,254.4,259c22,0,43.6,6.4,62,18.4c2,1.2,2.4,3.6,1.2,5.6
	s-3.6,2.4-5.6,1.2c-17.2-11.2-37.2-16.8-57.6-16.8c-58.8,0-106.8,48-106.8,106.8S195.6,481,254.4,481s106.8-48,106.8-106.8
	c0-23.2-7.2-45.2-21.2-63.6c-1.2-1.6-0.8-4.4,0.8-5.6s4.4-0.8,5.6,0.8c14.8,20,22.8,43.6,22.8,68.4C369.6,437,318,488.6,254.4,488.6
	z"/>
<path d="M282.8,435.8h-56.4c-12.8,0-22-13.6-22-25.6v-33.6c0-12,9.2-20.8,22-20.8h32c2.4,0,4,1.6,4,4s-1.6,4-4,4h-32
	c-8.4,0-14,4.8-14,12.8v33.6c0,8,6,17.6,14,17.6h56.4c8,0,13.6-9.2,13.6-17.6v-33.6c0-8-6-13.6-14.4-13.6c-2.4,0-4-1.6-4-4
	s1.6-4,4-4c12.8,0,22.4,9.2,22.4,21.6v33.6C304.4,422.6,295.6,435.8,282.8,435.8z"/>
<path d="M284.4,361.8c-2.4,0-4-1.6-4-4v-8.4c0-15.6-11.2-27.2-26-27.2s-26,11.6-26,27.2v8.4c0,2.4-1.6,4-4,4s-4-1.6-4-4v-8.4
	c0-20,14.8-35.2,34-35.2s34,15.6,34,35.2v8.4C288.4,360.2,286.8,361.8,284.4,361.8z"/>
<path d="M254.4,397.4c-6.4,0-12-5.2-12-12c0-6.4,5.2-12,12-12c6.4,0,12,5.2,12,12C266.4,391.8,261.2,397.4,254.4,397.4z
	 M254.4,381.4c-2,0-4,1.6-4,4c0,2,1.6,4,4,4s4-1.6,4-4C258.4,383.4,256.8,381.4,254.4,381.4z"/>
<path d="M254.4,415c-2.4,0-4-1.6-4-4v-16c0-2.4,1.6-4,4-4s4,1.6,4,4v16C258.4,413.4,256.8,415,254.4,415z"/>
</svg>